# xmcd
#
# Track frame offsets:
#	187
#	17220
#	36935
#	46635
#	59045
#	73962
#	86467
#	97915
#	110582
#	129777
#	150130
#	170772
#	185937
#	200337
#	209610
#	221187
#	233670
#	247412
#	266100
#
# Disc length: 3808 seconds
#
# Revision: 1
# Processed by: cddbd v1.5.1PL2 Copyright (c) Steve Scherf et al.
# Submitted via: audiograbber 1.83.01
#
DISCID=1e0ede13
DTITLE=Various Artist - MCA Nashville
DYEAR=1994
DGENRE=Country
TTITLE0=David Lee Murphy - Dust on the bottle
TTITLE1=Reba McEntire - Everything that you want
TTITLE2=George Strait - The big one
TTITLE3=Terry McBride and the Ride - Somebody will
TTITLE4=The Mavericks - There goes my heart
TTITLE5=George Jones and Marty Stuart - One woman man
TTITLE6=Conway Twitty and Loretta Lynn - Louisiana woman, Mississippi man
TTITLE7=Trisha Yearwood  - XXX's and OOO's
TTITLE8=Vince Gill - South side of Dixie
TTITLE9=Todd Snider - Turn it up
TTITLE10=Joe Ely - The road goes forever
TTITLE11=Mark Collie - Hard lovin' woman
TTITLE12=Mac McAnally - Good for nothing
TTITLE13=Bill Monroe - Rocky road blues
TTITLE14=Marty Stuart - Shake your hips
TTITLE15=Jimmy Buffett - She's got you
TTITLE16=Tracy Byrd - Waterrmelon crawl
TTITLE17=Rodney Crowell - Let the pricture paint itself
TTITLE18=Wynonna - Father sun
EXTD=
EXTT0=
EXTT1=
EXTT2=
EXTT3=
EXTT4=
EXTT5=
EXTT6=
EXTT7=
EXTT8=
EXTT9=
EXTT10=
EXTT11=
EXTT12=
EXTT13=
EXTT14=
EXTT15=
EXTT16=
EXTT17=
EXTT18=
PLAYORDER=
